<?xml version="1.0" encoding="UTF-8" standalone="no"?>
<svg
   xmlns:dc="http://purl.org/dc/elements/1.1/"
   xmlns:cc="http://creativecommons.org/ns#"
   xmlns:rdf="http://www.w3.org/1999/02/22-rdf-syntax-ns#"
   xmlns:svg="http://www.w3.org/2000/svg"
   xmlns="http://www.w3.org/2000/svg"
   xmlns:sodipodi="http://sodipodi.sourceforge.net/DTD/sodipodi-0.dtd"
   xmlns:inkscape="http://www.inkscape.org/namespaces/inkscape"
   height="39.696209mm"
   width="66.309784mm"
   version="1.1"
   viewBox="0 0 234.95778 140.65747"
   id="svg4227"
   inkscape:version="0.91 r13725"
   sodipodi:docname="hyperlink.svg">
  <metadata
     id="metadata4252">
    <rdf:RDF>
      <cc:Work
         rdf:about="">
        <dc:format>image/svg+xml</dc:format>
        <dc:type
           rdf:resource="http://purl.org/dc/dcmitype/StillImage" />
        <dc:title></dc:title>
      </cc:Work>
    </rdf:RDF>
  </metadata>
  <sodipodi:namedview
     pagecolor="#ffffff"
     bordercolor="#666666"
     borderopacity="1"
     objecttolerance="10"
     gridtolerance="10"
     guidetolerance="10"
     inkscape:pageopacity="0"
     inkscape:pageshadow="2"
     inkscape:window-width="1199"
     inkscape:window-height="769"
     id="namedview4250"
     showgrid="false"
     fit-margin-top="0"
     fit-margin-left="0"
     fit-margin-right="0"
     fit-margin-bottom="0"
     inkscape:zoom="2.0642167"
     inkscape:cx="129.87006"
     inkscape:cy="58.274625"
     inkscape:window-x="323"
     inkscape:window-y="2"
     inkscape:window-maximized="0"
     inkscape:current-layer="svg4227" />
  <defs
     id="defs4229">
    <filter
       id="a"
       style="color-interpolation-filters:sRGB"
       height="1.0666"
       width="1.0784"
       y="-0.033275001"
       x="-0.039211001">
      <feGaussianBlur
         stdDeviation="1.5860125"
         id="feGaussianBlur4232" />
    </filter>
    <filter
       inkscape:collect="always"
       style="color-interpolation-filters:sRGB"
       id="filter4855"
       x="-0.052025631"
       width="1.1040514"
       y="-0.044552613"
       height="1.0891052">
      <feGaussianBlur
         inkscape:collect="always"
         stdDeviation="1.978492"
         id="feGaussianBlur4857" />
    </filter>
  </defs>
  <path
     style="opacity:0.57900002;fill:#000000;fill-rule:evenodd;stroke:#000000;stroke-width:1.00001144px;stroke-linecap:butt;stroke-linejoin:miter;stroke-opacity:1;filter:url(#filter4855)"
     d="M 109.97015,112.55437 85.263158,69.922705 c 0,0 -2.439363,-3.279261 1.937803,-5.813409 9.204564,-5.328958 23.253639,13.564621 23.253639,13.564621 l -4.36006,-46.507274 c 0,0 5.32896,-8.235663 7.26676,-8.235663 1.9378,0 9.20457,8.720115 9.20457,8.720115 l 2.42225,36.333807 c 0,0 -0.9689,-16.955776 10.65792,-15.017973 4.30073,0.716789 8.72011,16.471325 8.72011,16.471325 0,0 1.9378,-16.471325 9.20457,-14.049072 7.26676,2.422254 8.72011,15.986876 8.72011,15.986876 0,0 2.36003,-8.173443 6.72009,-6.23564 4.36005,1.937803 4.84452,6.297859 4.84452,12.595719 0,6.297861 -2.42227,21.800286 -2.42227,21.800286 l -10.65791,17.924677 -13.01795,12.04905 -35.36491,-0.9689 z"
     id="path4809"
     inkscape:connector-curvature="0"
     sodipodi:nodetypes="ccsccsccscscssccccc" />
  <g
     id="g4804"
     transform="translate(73.636518,24.111822)">
    <text
       sodipodi:linespacing="110%"
       id="text4798"
       y="11.899332"
       x="-70.729996"
       style="font-style:normal;font-variant:normal;font-weight:normal;font-stretch:normal;font-size:50.0005722px;line-height:110.00000238%;font-family:Arial;-inkscape-font-specification:'Arial, Normal';text-align:start;letter-spacing:0px;word-spacing:0px;writing-mode:lr-tb;text-anchor:start;fill:#0039af;fill-opacity:1;stroke:none;stroke-width:1px;stroke-linecap:butt;stroke-linejoin:miter;stroke-opacity:1"
       xml:space="preserve"><tspan
         y="11.899332"
         x="-70.729996"
         id="tspan4800"
         sodipodi:role="line">Hyperlänk</tspan></text>
    <path
       inkscape:connector-curvature="0"
       id="path4802"
       d="m -73.636697,17.228287 234.958627,0"
       style="fill:none;fill-rule:evenodd;stroke:#0039af;stroke-width:4.00004578;stroke-linecap:butt;stroke-linejoin:miter;stroke-miterlimit:4;stroke-dasharray:none;stroke-opacity:1" />
  </g>
  <g
     transform="translate(-2.2664823,-136.59818)"
     id="g4234">
    <g
       transform="matrix(0.95521,0,0,0.95521,3.3996,12.418)"
       id="g4236"
       style="stroke:#000000;stroke-linecap:round;stroke-linejoin:round">
      <path
         d="m 108.7,267.77 c 0,0 0.29482,-2.0637 0.44222,-4.3927 0.14741,-2.329 0.14741,-4.9234 -0.44222,-5.9847 -0.58962,-1.0613 -6.591,-4.3565 -10.54,-13.569 -5.4529,-12.72 -11.078,-24.531 -17.355,-33.365 -3.9991,-5.6283 3.6031,-14.387 11.622,-9.6698 8.0189,4.717 14.387,15.094 14.387,15.094 0,0 -3.6385,-39.363 -3.7736,-42.2 -0.23585,-4.9528 0.77796,-8.9308 2.5943,-11.321 4.4811,-5.8962 10.142,-3.066 13.208,1.8868 3.066,4.9528 5.4245,40.549 5.4245,40.549 0,0 1.3553,-8.5121 3.5861,-11.338 3.5377,-4.4811 10.971,-3.066 13.094,1.1792 2.1226,4.2453 1.5373,11.988 1.5373,11.988 0,0 0.69875,-7.1349 3.1797,-9.7436 6.0176,-6.3275 12.57,-2.8302 13.985,2.3585 1.5564,5.7066 1.0045,10.508 1.0045,10.508 0,0 1.7802,-4.7194 3.8958,-6.8396 4.9172,-4.928 11.146,-0.70755 12.089,4.717 0.9434,5.4245 -3.0134,29.481 -4.6644,33.019 -1.6509,3.5377 -9.0276,10.377 -11.858,15.094 -2.8302,4.717 -4.9528,17.689 -4.9528,17.689 0,0 -10.849,0.23585 -11.557,-1.1792 -0.70755,-1.4151 -0.43521,-10.098 -4.2453,-11.321 -4.1213,-1.3225 -5.4245,10.377 -7.783,10.613 -2.3585,0.23585 -18.151,-0.003 -22.877,-3.7736 z"
         id="path4238"
         inkscape:connector-curvature="0"
         style="opacity:0.6;fill:none;stroke-width:2.92689991;filter:url(#a)" />
      <g
         transform="matrix(0.14635,0,0,0.14635,79.504,150.28)"
         id="g4240"
         style="fill:#f2f2f2;fill-rule:evenodd;stroke-width:20">
        <path
           d="m 196.61,799.34 c 0,0 2.0145,-14.101 3.0217,-30.016 1.0072,-15.914 1.0072,-33.642 -3.0217,-40.894 -4.029,-7.2521 -45.037,-29.768 -72.023,-92.717 -37.26,-86.91 -75.698,-167.61 -118.59,-227.98 -27.326,-38.46 24.62,-98.31 79.414,-66.07 54.796,32.23 98.306,103.14 98.306,103.14 0,0 -24.862,-268.97 -25.785,-288.36 -1.6116,-33.843 5.3159,-61.025 17.727,-77.356 30.62,-40.29 69.298,-20.951 90.249,12.893 20.951,33.843 37.066,277.08 37.066,277.08 0,0 9.2612,-58.164 24.504,-77.472 24.174,-30.62 74.967,-20.951 89.472,8.0579 14.504,29.008 10.504,81.918 10.504,81.918 0,0 4.7747,-48.753 21.727,-66.579 41.119,-43.236 85.889,-19.339 95.559,16.116 10.635,38.994 6.8637,71.802 6.8637,71.802 0,0 12.164,-32.248 26.62,-46.736 33.599,-33.673 76.162,-4.8347 82.608,32.232 6.4463,37.066 -20.591,201.45 -31.872,225.62 -11.281,24.174 -61.686,70.91 -81.025,103.14 -19.339,32.232 -33.843,120.87 -33.843,120.87 0,0 -74.133,1.6116 -78.967,-8.0579 -4.8348,-9.6695 -2.9738,-69.001 -29.008,-77.356 -28.161,-9.0371 -37.066,70.91 -53.182,72.521 -16.116,1.6116 -124.03,-0.0173 -156.32,-25.785 z"
           id="path4242"
           inkscape:connector-curvature="0" />
        <path
           d="M 317.48,493.14 304.59,654.3"
           id="path4244"
           inkscape:connector-curvature="0" />
        <path
           d="M 410.95,506.04 398.06,665.58"
           id="path4246"
           inkscape:connector-curvature="0" />
        <path
           d="M 507.65,518.93 486.7,678.48"
           id="path4248"
           inkscape:connector-curvature="0" />
      </g>
    </g>
  </g>
</svg>
